<?xml version="1.0" standalone="no"?><!-- Generator: Gravit.io --><svg xmlns="http://www.w3.org/2000/svg" xmlns:xlink="http://www.w3.org/1999/xlink" style="isolation:isolate" viewBox="0 0 148.614 199.755" width="148.614px" height="199.755px"><defs><clipPath id="_clipPath_iCc6VUEo0g8ObCSfDpC421kgsoeLutyF"><rect width="148.614" height="199.755"/></clipPath></defs><g clip-path="url(#_clipPath_iCc6VUEo0g8ObCSfDpC421kgsoeLutyF)"><g><path d=" M 78.805 197.855 C 77.305 196.155 77.305 194.355 78.805 193.755 C 79.705 193.455 85.005 193.455 85.505 193.755 C 90.405 192.155 92.105 192.255 94.805 185.755 C 95.605 183.855 99.405 176.455 99.805 171.755 C 100.705 162.355 99.005 154.755 94.805 138.755 C 92.305 129.255 92.105 123.255 94.805 120.955 C 95.905 120.055 101.705 120.055 110.705 119.755 C 121.305 119.005 123.105 118.955 125.805 117.055 C 129.005 114.755 131.805 109.055 131.805 103.355 C 131.805 101.255 133.305 100.755 135.405 100.755 C 137.905 100.755 138.005 100.855 137.405 106.055 C 136.005 117.155 135.605 118.555 133.205 120.855 C 131.005 122.955 129.205 123.255 115.705 124.255 C 95.405 125.655 95.605 125.455 100.705 146.655 C 104.605 162.355 105.505 175.255 103.505 183.055 C 101.705 189.955 98.105 195.555 93.905 198.055 C 89.905 200.355 81.005 200.355 78.805 197.855 Z " fill="rgb(99,144,169)"/><path d=" M 83.205 182.755 C 82.468 182.755 81.18 182.067 80.705 181.155 C 79.555 179.317 80.605 176.755 83.305 176.755 C 86.105 176.755 86.743 179.442 85.505 181.155 C 84.68 182.38 83.943 182.755 83.205 182.755 Z " fill="rgb(99,144,169)"/><path d=" M 53.805 124.755 C 46.805 124.155 41.805 121.355 41.805 119.755 C 41.805 119.502 44.208 119.793 47.798 119.755 C 49.88 119.732 52.362 120.518 55.005 120.555 C 65.305 120.855 68.705 121.255 70.105 122.455 C 71.005 123.355 71.805 124.455 71.805 124.955 C 71.805 125.855 65.305 125.755 53.805 124.755 Z " fill="rgb(99,144,169)"/><path d=" M 37.58 97.755 C 34.755 97.192 33.905 95.855 33.905 95.555 C 33.905 94.655 43.005 95.755 50.005 95.755 C 53.43 95.505 55.205 95.755 55.005 94.355 C 54.905 93.355 54.505 91.455 55.005 90.455 C 55.198 89.974 54.998 89.055 55.005 87.942 C 55.014 86.738 55.213 85.306 55.005 83.955 C 54.705 81.355 55.605 75.455 55.505 70.755 C 55.305 55.555 55.105 24.455 55.505 24.855 C 55.623 24.973 56.361 25.111 56.805 26.755 C 57.114 27.897 57.641 34.278 57.805 35.755 C 58.024 38.378 58.055 45.005 58.392 48.755 C 58.555 51.005 58.744 57.602 58.805 58.755 C 58.68 67.755 58.805 59.055 58.805 70.755 L 58.905 82.005 Q 58.931 93.348 58.805 94.055 C 58.68 94.761 58.624 95.183 58.392 95.755 C 58.16 96.326 58.082 96.512 57.805 96.855 Q 57.529 97.197 53.805 97.755 C 45.905 97.905 40.405 98.317 37.58 97.755 Z " fill="rgb(99,144,169)"/><path d=" M 68.805 96.155 C 68.805 95.155 70.205 94.755 73.105 94.655 C 75.405 94.555 78.005 92.855 78.805 92.755 C 80.105 92.655 79.68 91.13 79.905 73.755 C 79.705 62.455 78.505 46.455 78.805 46.755 C 80.405 48.455 83.905 69.455 84.405 82.055 C 85.005 95.955 85.005 96.755 83.205 96.855 C 82.105 96.855 78.505 97.055 75.105 97.155 C 70.305 97.455 68.805 97.155 68.805 96.155 Z " fill="rgb(99,144,169)"/><path d=" M 119.805 94.355 C 119.805 93.155 119.805 94.755 119.805 94.055 C 119.805 92.855 125.205 90.755 129.505 90.755 C 132.105 90.755 131.405 91.455 131.805 89.755 C 132.205 87.755 136.005 69.655 137.305 57.255 C 138.005 50.655 141.105 11.755 141.805 7.755 C 142.305 4.555 144.405 4.755 146.405 4.755 C 148.805 4.755 148.905 4.955 148.305 9.055 C 147.705 13.855 137.305 92.955 137.305 93.655 C 137.305 93.955 136.805 94.155 135.405 94.355 C 133.705 94.755 119.805 95.355 119.805 94.355 Z " fill="rgb(99,144,169)"/><path d=" M 93.405 94.055 C 93.405 92.855 95.905 93.755 98.605 93.655 C 100.605 93.555 101.805 92.555 102.405 92.755 C 103.805 92.955 106.805 89.355 106.805 86.755 C 106.805 85.455 107.205 84.955 107.705 83.955 C 108.205 83.055 109.005 77.055 110.705 70.755 C 112.505 64.455 119.005 45.655 119.805 43.755 C 121.105 40.455 117.805 52.955 117.505 62.755 C 117.205 70.855 115.055 76.755 113.805 84.255 C 112.105 90.355 110.505 95.355 110.305 95.555 C 110.205 95.755 106.605 96.055 102.405 96.355 C 96.005 96.755 93.405 95.355 93.405 94.055 Z " fill="rgb(99,144,169)"/><path d=" M 32.805 48.155 C 30.205 39.155 24.605 24.955 23.805 22.755 C 22.005 17.655 21.005 12.655 21.805 12.155 C 23.205 11.255 25.705 11.855 29.405 23.955 C 35.005 41.855 37.88 55.455 37.58 58.755 C 37.38 61.155 34.705 54.455 32.805 48.155 Z " fill="rgb(99,144,169)"/><path d=" M 92.805 31.755 C 90.105 21.755 87.105 12.455 86.805 11.555 C 86.505 10.355 88.105 9.755 89.105 9.755 C 90.105 9.755 91.805 14.055 94.805 25.055 C 97.359 34.199 99.404 43.695 99.805 48.155 C 100.08 51.205 99.255 50.755 98.605 50.755 C 98.105 50.755 95.505 41.855 92.805 31.755 Z " fill="rgb(99,144,169)"/></g><g><path d=" M 74.405 191.455 C 68.705 183.955 67.305 179.155 67.305 166.755 C 67.405 157.655 68.005 152.955 70.105 144.455 C 73.105 132.255 73.505 126.155 71.405 123.155 C 70.105 121.255 68.505 121.055 56.405 120.455 C 37.205 119.555 35.905 118.655 34.205 104.555 C 33.705 99.955 33.905 98.755 34.905 98.755 C 36.305 98.755 71.105 97.555 112.705 96.155 L 133.105 95.455 L 132.405 102.855 C 131.405 112.255 129.805 116.055 126.205 117.555 C 124.605 118.255 117.105 119.155 109.505 119.555 C 101.205 120.055 95.305 120.855 94.605 121.555 C 92.705 123.455 93.405 132.355 96.205 143.255 C 102.005 165.055 100.605 181.455 92.205 190.255 C 88.105 194.555 87.505 194.755 82.405 194.755 C 77.405 194.755 76.705 194.455 74.405 191.455 Z  M 86.305 179.255 C 86.305 176.555 86.005 176.255 83.305 176.255 C 81.205 176.255 80.205 176.755 80.005 178.055 C 79.405 181.355 80.605 182.955 83.505 182.555 C 85.905 182.255 86.305 181.755 86.305 179.255 Z " fill="rgb(253,254,254)"/><path d=" M 30.305 94.755 C 29.905 94.155 28.405 89.955 26.905 85.355 C 25.305 80.855 18.505 61.955 11.805 43.355 C 5.105 24.855 -0.195 9.455 0.005 9.255 C 0.705 8.555 20.105 6.655 20.605 7.255 C 20.905 7.555 22.605 12.655 24.405 18.555 C 26.3 23.277 28.85 31.504 30.471 38.147 C 30.745 39.27 30.992 40.347 31.205 41.355 C 33.444 49.047 34.925 53.806 35.875 56.352 C 36.132 57.041 36.351 57.568 36.535 57.947 C 36.854 58.606 37.07 58.817 37.205 58.655 C 37.257 58.603 37.282 58.084 37.282 57.196 C 37.282 54.648 37.076 49.059 36.705 42.755 C 36.305 34.255 35.905 22.655 35.905 17.155 L 35.805 7.055 L 39.605 6.455 C 41.605 6.055 52.905 5.455 64.505 5.155 L 85.605 4.455 L 86.505 7.855 C 87.105 9.755 89.905 20.155 92.805 31.055 C 95.805 41.855 98.405 50.755 98.805 50.755 C 99.105 50.755 102.305 40.355 105.805 27.655 C 108.5 17.876 111.254 8.928 112.744 4.918 C 113.189 3.719 113.521 2.962 113.705 2.755 C 115.005 1.155 117.605 0.755 129.605 0.255 C 137.405 -0.145 143.805 -0.045 143.805 0.355 C 143.805 0.855 142.405 12.555 140.705 26.255 C 139.105 40.055 136.805 58.655 135.805 67.755 C 134.705 76.855 133.605 85.955 133.205 87.955 C 132.605 92.055 133.005 91.755 121.405 93.255 L 116.505 93.955 L 117.205 77.555 C 117.505 68.555 118.105 58.155 118.405 54.255 C 118.805 50.455 118.805 47.455 118.505 47.755 C 118.005 48.155 114.505 59.855 106.905 86.155 C 104.905 92.855 103.905 93.555 96.105 93.655 C 91.205 93.755 90.805 93.555 90.105 91.055 C 89.705 89.455 87.105 78.855 84.205 67.255 L 79.005 46.255 L 79.605 69.855 L 80.105 93.455 L 77.705 94.055 C 76.405 94.455 72.805 94.755 69.605 94.755 L 64.005 94.755 L 63.405 90.055 C 63.105 87.355 62.105 76.455 61.305 65.755 C 60.399 54.71 59.475 44.225 58.667 35.673 C 58.52 34.111 58.376 32.613 58.237 31.188 C 58.083 29.609 57.935 28.119 57.794 26.73 C 57.695 25.765 57.6 24.848 57.509 23.983 C 57.392 22.878 57.281 21.86 57.177 20.935 C 56.761 17.231 56.454 15.033 56.305 14.855 C 56.005 14.655 55.705 24.955 55.705 37.855 C 55.638 51.718 55.385 72.139 55.167 84.493 C 55.15 85.459 55.133 86.376 55.117 87.237 C 55.103 87.942 55.09 88.609 55.077 89.234 C 55.01 92.448 54.95 94.562 54.905 95.055 C 54.805 96.155 31.005 95.955 30.305 94.755 Z " fill="rgb(253,254,254)"/></g></g></svg>